# xmcd CD database file
#
# Track frame offsets:
#	150
#	15909
#	33510
#	51355
#	69427
#	84794
#	105790
#	121766
#	135749
#	153403
#	169514
#	183578
#	200722
#	217454
#	232733
#	251891
#	265089
#	280549
#
# Disc length: 3962 seconds
#
# Revision: 1
# Processed by: cddbd v1.5.1PL0 Copyright (c) Steve Scherf et al.
# Submitted via: CDex 1.51
#
DISCID=ee0f7812
DTITLE=Various Artist - Promo Only Canada February 2005 Country Radio
DYEAR=2005
DGENRE=Country
TTITLE0=Toby Keith duet with Krystal - Mockingbird
TTITLE1=Brooks and Dunn - It's Getting Better All The Time
TTITLE2=Kenny Chesney - Anything But Mine
TTITLE3=George Canyon - My Name
TTITLE4=Phil Vassar - I'll Take That As A Yes
TTITLE5=Chely Wright - The Bumper Of My S.U.V
TTITLE6=Glenn Cummings - Big
TTITLE7=Julie Roberts - Wake Up Older (Radio Version)
TTITLE8=Shania Twain - Don't (Album Version)
TTITLE9=Ronan Keating - I Hope You Dance
TTITLE10=Sawyer Brown - Mission Temple Fireworks Stand
TTITLE11=Katrina Elam - I Won't Say Goodbye
TTITLE12=The Wilkinsons - Leaving Song
TTITLE13=Brad Cotter - I Miss Me
TTITLE14=Aaron Russell - For Just Who I Am
TTITLE15=Matt Linsin - He's Just A Man
TTITLE16=Zona Jones - Two Hearts
TTITLE17=Cledus T. Judd - Bake Me A Country Ham
EXTD=YEAR: 2005
EXTT0=
EXTT1=
EXTT2=
EXTT3=
EXTT4=
EXTT5=
EXTT6=
EXTT7=
EXTT8=
EXTT9=
EXTT10=
EXTT11=
EXTT12=
EXTT13=
EXTT14=
EXTT15=
EXTT16=
EXTT17=
PLAYORDER=
